<?xml version="1.0" encoding="UTF-8"?>
<svg id="Layer_2" data-name="Layer 2" xmlns="http://www.w3.org/2000/svg" viewBox="0 0 124.29 124.29">
  <defs>
    <style>
      .cls-1 {
        fill: #010101;
      }

      .cls-2 {
        fill: #fff;
      }
    </style>
  </defs>
  <g id="Layer_1-2" data-name="Layer 1">
    <rect class="cls-1" width="124.29" height="124.29"/>
    <g>
      <path class="cls-2" d="M61.94,87.51h0v24.07h-9.96v-24.07l-23.99,13.66-4.8-8.49,23.99-14.02"/>
      <path class="cls-2" d="M42.63,74.31h0l-20.51,12.61-5.22-8.49,20.51-12.61-24.2-13.28,4.72-8.53,24.51,13.09"/>
      <path class="cls-2" d="M40.32,48.91h0l-20.76-12.18,5.04-8.6,20.76,12.18.35-27.6,9.75.15-.04,27.79"/>
      <path class="cls-2" d="M62.35,36.78h0V12.71h9.96v24.07l23.99-13.66,4.8,8.49-23.99,14.02"/>
      <path class="cls-2" d="M81.66,49.98h0l20.51-12.61,5.22,8.49-20.51,12.61,24.2,13.28-4.72,8.53-24.51-13.09"/>
      <path class="cls-2" d="M83.97,75.38h0l20.76,12.18-5.04,8.6-20.76-12.18-.35,27.6-9.75-.15.04-27.79"/>
    </g>
  </g>
</svg>