<?xml version="1.0" encoding="UTF-8"?>
<svg id="Layer_2" data-name="Layer 2" xmlns="http://www.w3.org/2000/svg" viewBox="0 0 559.51 257.75">
  <defs>
    <style>
      .cls-1 {
        fill: #fff;
      }
    </style>
  </defs>
  <g id="Layer_1-2" data-name="Layer 1">
    <rect width="559.51" height="257.75"/>
    <g>
      <path class="cls-1" d="M26.16,191.65c0,23.78,11.09,33.77,26.99,33.64,13.19-.12,23.54-6.41,27.11-22.31l11.71,2.34c-4.56,20.33-19.97,30.07-38.82,30.32-22.68.25-39.93-14.05-39.93-43.99s17.26-44.24,39.93-44c18.85.25,34.26,9.98,38.82,30.32l-11.71,2.34c-3.57-15.9-13.93-22.18-27.11-22.31-15.9-.13-26.99,9.86-26.99,33.64Z"/>
      <path class="cls-1" d="M98.38,162.19v-13.68h12.7v13.68h-12.7ZM98.63,234.78h12.19v-61.62h-12.19v61.62Z"/>
      <path class="cls-1" d="M161.1,173.16h12.94l-23.05,61.62h-10.72l-23.04-61.62h12.94l15.52,45.72,15.41-45.72Z"/>
      <path class="cls-1" d="M180.21,162.19v-13.68h12.7v13.68h-12.7ZM180.45,234.78h12.2v-61.62h-12.2v61.62Z"/>
      <path class="cls-1" d="M199.31,203.97c0-21.32,13.8-31.67,29.95-31.55,12.45.12,22.92,6.16,27.73,18.73l-10.72,3.94c-3.08-8.62-9.49-12.32-17.01-12.45-9.86-.12-18.36,6.28-18.36,21.32s8.51,21.44,18.36,21.32c7.52-.12,13.93-3.82,17.01-12.45l10.72,3.94c-4.81,12.57-15.28,18.61-27.73,18.73-16.14.12-29.95-10.23-29.95-31.55Z"/>
      <path class="cls-1" d="M333.95,177.1c0,18.36-11.83,28.59-31.55,28.59h-17.87v29.08h-12.2v-86.27h30.07c19.71,0,31.55,10.23,31.55,28.59ZM302.4,195.59c12.81,0,19.35-7.76,19.35-18.49s-6.53-18.49-19.35-18.49h-17.87v36.97h17.87Z"/>
      <path class="cls-1" d="M373.76,172.17v10.85c-14.17,0-21.07,6.16-21.07,28.71v23.05h-12.32v-61.62h12.32v11.34c3.95-8.62,10.73-12.32,20.83-12.32h.24Z"/>
      <path class="cls-1" d="M432.91,208.9h-47.57c1.6,11.46,9.24,16.51,17.99,16.39,7.4-.12,14.54-3.7,17.87-11.83l10.6,4.19c-4.93,11.95-16.27,17.74-28.47,17.87-16.14.12-29.95-10.23-29.95-31.55s13.8-31.67,29.95-31.55c16.15.12,29.95,10.23,29.95,31.55,0,1.73-.12,3.33-.37,4.93ZM385.35,198.67h35.98c-1.85-11.22-9.37-15.9-18-16.02-8.63-.12-16.14,4.81-17.99,16.02Z"/>
      <path class="cls-1" d="M449.68,215.68c1.11,6.78,7.28,9.98,14.17,9.98s14.05-3.2,14.05-10.6c0-13.8-38.82,1.85-38.82-24.03,0-17.74,18.24-18.73,24.77-18.73,6.17,0,21.94.86,24.65,14.54l-11.09,3.2c-1.48-6.41-6.66-8.63-13.56-8.63s-12.69,2.47-12.69,9.61c0,14.3,38.82-2.22,38.82,24.03,0,18.86-19.35,20.46-26.13,20.46-6.16,0-23.91-1.48-25.88-17.38l11.71-2.47Z"/>
      <path class="cls-1" d="M506.98,215.68c1.11,6.78,7.28,9.98,14.17,9.98s14.05-3.2,14.05-10.6c0-13.8-38.82,1.85-38.82-24.03,0-17.74,18.24-18.73,24.77-18.73,6.17,0,21.94.86,24.65,14.54l-11.09,3.2c-1.48-6.41-6.66-8.63-13.56-8.63s-12.69,2.47-12.69,9.61c0,14.3,38.82-2.22,38.82,24.03,0,18.86-19.35,20.46-26.13,20.46-6.16,0-23.91-1.48-25.88-17.38l11.71-2.47Z"/>
    </g>
    <g>
      <path class="cls-1" d="M61.94,93.08h0v24.07h-9.96v-24.07l-23.99,13.66-4.8-8.49,23.99-14.02"/>
      <path class="cls-1" d="M42.63,79.88h0l-20.51,12.61-5.22-8.49,20.51-12.61-24.2-13.28,4.72-8.53,24.51,13.09"/>
      <path class="cls-1" d="M40.32,54.48h0l-20.76-12.18,5.04-8.6,20.76,12.18.35-27.6,9.75.15-.04,27.79"/>
      <path class="cls-1" d="M62.35,42.35h0v-24.07h9.96v24.07l23.99-13.66,4.8,8.49-23.99,14.02"/>
      <path class="cls-1" d="M81.66,55.55h0l20.51-12.61,5.22,8.49-20.51,12.61,24.2,13.28-4.72,8.53-24.51-13.09"/>
      <path class="cls-1" d="M83.97,80.95h0l20.76,12.18-5.04,8.6-20.76-12.18-.35,27.6-9.75-.15.04-27.79"/>
    </g>
  </g>
</svg>